<?xml version="1.0" encoding="utf-8"?>
<!-- Generator: Adobe Illustrator 16.0.0, SVG Export Plug-In . SVG Version: 6.00 Build 0)  -->
<!DOCTYPE svg PUBLIC "-//W3C//DTD SVG 1.1//EN" "http://www.w3.org/Graphics/SVG/1.1/DTD/svg11.dtd">
<svg version="1.1" id="Layer_1" xmlns="http://www.w3.org/2000/svg" xmlns:xlink="http://www.w3.org/1999/xlink" x="0px" y="0px"
	 width="100px" height="100px" viewBox="0 0 100 100" enable-background="new 0 0 100 100" xml:space="preserve">
<g id="Layer_1_2_">
	<path fill="#FDFEFF" d="M78.455,42.308c-1.967,0-3.856,0.331-5.624,0.93c-1.371-3.038-2.972-6.592-4.847-10.763l1.198-3.289
		l4.11-0.076v-3.438H57.817c-1.354,1.851,0.545,1.842,7.4,3.364L64.021,32.4H33.446c2.06-7.193,0.895-6.669,10.168-6.652v-3.515
		c-12.764,0.125-10.552-1.314-17.386,20.671c-1.045-0.195-2.12-0.303-3.225-0.303c-9.694,0-17.584,7.888-17.584,17.583
		c0,9.695,7.89,17.584,17.584,17.584c9.699,0,17.584-7.889,17.584-17.584c0-7.254-4.419-13.497-10.703-16.18
		c0.382-1.205,0.792-2.489,1.233-3.861C56.84,67.277,47.189,62.875,61.035,63.422c0.062,0,0.123,0,0.193,0
		c1.641,8.016,8.742,14.051,17.229,14.051c9.696,0,17.581-7.885,17.581-17.578C96.038,50.199,88.15,42.308,78.455,42.308z
		 M36.472,60.182c0,7.43-6.042,13.469-13.469,13.469c-7.424,0-13.471-6.037-13.471-13.469c0-7.424,6.043-13.47,13.471-13.47
		c0.67,0,1.329,0.051,1.97,0.147c-4.291,13.53-3.773,11.991-3.8,13.128c-0.021,0.965,0.756,1.729,1.732,1.793
		c1.752-0.178,1.356,0.111,5.733-13.829C33.255,50.089,36.472,54.766,36.472,60.182z M53.834,59.344L32.562,36.161l29.923-0.053
		L53.834,59.344z M60.873,59.832l-3.271-0.01l8.488-22.28l3.294,7.294C64.303,47.91,60.893,53.478,60.873,59.832z M71.094,48.624
		l5.075,11.251l-11.185-0.033C65.004,55.152,67.43,51.021,71.094,48.624z M78.455,73.365c-6.214,0-11.452-4.234-13.001-9.957
		c14.019,0.01,15.27,0.73,15.46-1.701c-0.017-0.711-0.277-1.193-6.38-14.699c1.238-0.378,2.556-0.583,3.921-0.583
		c7.426,0,13.47,6.044,13.47,13.472C91.925,67.322,85.882,73.365,78.455,73.365z"/>
</g>
</svg>
