<?xml version="1.0" encoding="utf-8"?>
<!-- Generator: Adobe Illustrator 16.0.0, SVG Export Plug-In . SVG Version: 6.00 Build 0)  -->
<!DOCTYPE svg PUBLIC "-//W3C//DTD SVG 1.1//EN" "http://www.w3.org/Graphics/SVG/1.1/DTD/svg11.dtd">
<svg version="1.1" id="Layer_1" xmlns="http://www.w3.org/2000/svg" xmlns:xlink="http://www.w3.org/1999/xlink" x="0px" y="0px"
	 width="100px" height="100px" viewBox="0 0 100 100" enable-background="new 0 0 100 100" xml:space="preserve">
<g id="Layer_1_1_">
	<g>
		<path fill="#FCFAFA" d="M71.675,61.643H28.039c1.433,3.01,10.654,5.33,21.816,5.33C61.018,66.973,70.243,64.652,71.675,61.643
			L71.675,61.643z M13.91,53.002c-0.138,2.719,3.072,5.594,7.168,6.418c4.095,0.824,7.524-0.711,7.66-3.43
			c0.137-2.725-3.073-5.597-7.167-6.421C17.476,48.746,14.046,50.283,13.91,53.002L13.91,53.002z M49.855,14.511
			c-9.24,0.059-20.013,0.394-28.857,2.52c-0.784,0.149-0.876,0.975-0.876,0.975l-0.757,20.11c-0.066,3.488,3.919,5.074,30.488,5.157
			c26.574-0.083,30.557-1.669,30.494-5.157l-0.759-20.11c0,0-0.09-0.826-0.879-0.975C69.866,14.905,59.096,14.57,49.855,14.511
			L49.855,14.511z M85.801,53.002c-0.138-2.721-3.566-4.257-7.662-3.433c-4.097,0.824-7.305,3.696-7.168,6.421
			c0.138,2.719,3.565,4.254,7.662,3.43C82.728,58.596,85.936,55.721,85.801,53.002L85.801,53.002z M50.001,81.58l-2.43-0.002
			c-9.024-0.033-17.876-0.211-25.241-0.75v4.111c0,2.25-1.827,4.078-4.079,4.078h-3.353c-2.253,0-4.079-1.822-4.079-4.078v-8.582
			c-0.088-0.764-0.181-1.641-0.271-2.621c-0.693-3.596-1.093-7.846-1.093-12.4c0-5.775,0.644-11.061,1.713-15.147
			c0.212-0.93,0.468-1.76,0.759-2.501c0.088-0.253,0.182-0.501,0.273-0.742L16.26,15.18c0,0,0.163-1.155,1.198-1.414
			C26.77,11.232,49.223,10.979,50,10.982c0.777-0.002,23.23,0.25,32.541,2.784c1.034,0.259,1.2,1.414,1.2,1.414l4.055,27.766
			c0.093,0.24,0.188,0.488,0.273,0.742c0.293,0.741,0.55,1.571,0.762,2.501c1.066,4.085,1.712,9.372,1.712,15.147
			c0,4.555-0.4,8.803-1.093,12.4c-0.09,0.984-0.181,1.857-0.271,2.621v8.582c0,2.25-1.824,4.078-4.077,4.078H81.75
			c-2.252,0-4.079-1.822-4.079-4.078V80.83c-7.365,0.541-16.216,0.715-25.243,0.748L50.001,81.58L50.001,81.58z"/>
	</g>
</g>
</svg>
