<?xml version="1.0" encoding="utf-8"?>
<!-- Generator: Adobe Illustrator 16.0.0, SVG Export Plug-In . SVG Version: 6.00 Build 0)  -->
<!DOCTYPE svg PUBLIC "-//W3C//DTD SVG 1.1//EN" "http://www.w3.org/Graphics/SVG/1.1/DTD/svg11.dtd">
<svg version="1.1" id="Layer_1" xmlns="http://www.w3.org/2000/svg" xmlns:xlink="http://www.w3.org/1999/xlink" x="0px" y="0px"
	 width="93.281px" height="100px" viewBox="0 0 93.281 100" enable-background="new 0 0 93.281 100" xml:space="preserve">
<g>
	<g>
		<circle fill="#FDFEFF" cx="25.282" cy="23.301" r="7.856"/>
		<path fill="#FDFEFF" d="M34.905,62.842c0,2.313-1.814,4.189-4.052,4.189H19.711c-2.238,0-4.052-1.876-4.052-4.189V35.347
			c0-2.314,1.814-4.19,4.052-4.19h11.142c2.238,0,4.052,1.876,4.052,4.19V62.842z"/>
	</g>
	<g>
		<circle fill="#FDFEFF" cx="14.546" cy="37.834" r="7.856"/>
		<path fill="#FDFEFF" d="M24.169,77.375c0,2.313-1.814,4.189-4.053,4.189H8.975c-2.238,0-4.052-1.876-4.052-4.189V49.88
			c0-2.314,1.814-4.19,4.052-4.19h11.142c2.238,0,4.053,1.876,4.053,4.19V77.375z"/>
	</g>
	<g>
		<circle fill="#FDFEFF" cx="47.377" cy="23.301" r="7.856"/>
		<path fill="#FDFEFF" d="M57.001,62.842c0,2.313-1.813,4.189-4.053,4.189H41.807c-2.238,0-4.052-1.876-4.052-4.189V35.347
			c0-2.314,1.814-4.19,4.052-4.19h11.142c2.239,0,4.053,1.876,4.053,4.19V62.842z"/>
	</g>
	<g>
		<circle fill="#FDFEFF" cx="36.379" cy="37.834" r="7.856"/>
		<path fill="#FDFEFF" d="M46.003,77.375c0,2.313-1.814,4.189-4.053,4.189H30.809c-2.239,0-4.053-1.876-4.053-4.189V49.88
			c0-2.314,1.814-4.19,4.053-4.19H41.95c2.238,0,4.053,1.876,4.053,4.19V77.375z"/>
	</g>
	<g>
		<circle fill="#FDFEFF" cx="69.635" cy="23.039" r="7.856"/>
		<path fill="#FDFEFF" d="M79.259,62.58c0,2.313-1.813,4.189-4.053,4.189H64.064c-2.239,0-4.053-1.876-4.053-4.189V35.085
			c0-2.314,1.813-4.19,4.053-4.19h11.142c2.239,0,4.053,1.876,4.053,4.19V62.58z"/>
	</g>
	<g>
		<circle fill="#FDFEFF" cx="58.834" cy="37.834" r="7.856"/>
		<path fill="#FDFEFF" d="M68.456,77.375c0,2.313-1.813,4.189-4.053,4.189H53.265c-2.239,0-4.053-1.876-4.053-4.189V49.88
			c0-2.314,1.813-4.19,4.053-4.19h11.141c2.238,0,4.053,1.876,4.053,4.19v27.495H68.456z"/>
	</g>
	<g>
		<circle fill="#FDFEFF" cx="79.259" cy="37.834" r="7.856"/>
		<path fill="#FDFEFF" d="M88.881,77.375c0,2.313-1.813,4.189-4.053,4.189H73.689c-2.239,0-4.053-1.876-4.053-4.189V49.88
			c0-2.314,1.813-4.19,4.053-4.19H84.83c2.238,0,4.053,1.876,4.053,4.19v27.495H88.881z"/>
	</g>
</g>
</svg>
