<?xml version="1.0" encoding="utf-8"?>
<!-- Generator: Adobe Illustrator 16.0.0, SVG Export Plug-In . SVG Version: 6.00 Build 0)  -->
<!DOCTYPE svg PUBLIC "-//W3C//DTD SVG 1.1//EN" "http://www.w3.org/Graphics/SVG/1.1/DTD/svg11.dtd">
<svg version="1.1" id="Layer_1" xmlns="http://www.w3.org/2000/svg" xmlns:xlink="http://www.w3.org/1999/xlink" x="0px" y="0px"
	 width="93.281px" height="100px" viewBox="0 0 93.281 100" enable-background="new 0 0 93.281 100" xml:space="preserve">
<g>
	<g>
		<circle fill="#FDFEFF" cx="47.056" cy="28.756" r="9.303"/>
		<path fill="#FDFEFF" d="M58.455,75.585c0,2.741-2.147,4.962-4.8,4.962H40.461c-2.652,0-4.8-2.221-4.8-4.962V43.021
			c0-2.74,2.148-4.962,4.8-4.962h13.194c2.652,0,4.8,2.222,4.8,4.962V75.585z"/>
	</g>
	<path fill="#FDFEFF" d="M39.293,61.229c0,2.74-2.222,4.962-4.962,4.962h-0.385c-2.74,0-4.962-2.222-4.962-4.962V48.106
		c0-2.741,2.222-4.962,4.962-4.962h0.385c2.74,0,4.962,2.221,4.962,4.962V61.229z"/>
	<path fill="#FDFEFF" d="M64.297,61.229c0,2.74-2.223,4.962-4.962,4.962h-0.386c-2.74,0-4.963-2.222-4.963-4.962V48.107
		c0-2.74,2.223-4.962,4.963-4.962h0.386c2.739,0,4.962,2.222,4.962,4.962V61.229z"/>
</g>
</svg>
