<?xml version="1.0" encoding="utf-8"?>
<!-- Generator: Adobe Illustrator 16.0.0, SVG Export Plug-In . SVG Version: 6.00 Build 0)  -->
<!DOCTYPE svg PUBLIC "-//W3C//DTD SVG 1.1//EN" "http://www.w3.org/Graphics/SVG/1.1/DTD/svg11.dtd">
<svg version="1.1" xmlns="http://www.w3.org/2000/svg" xmlns:xlink="http://www.w3.org/1999/xlink" x="0px" y="0px" width="100px"
	 height="100px" viewBox="0 0 100 100" enable-background="new 0 0 100 100" xml:space="preserve">
<g id="Layer_2">
	<g id="Layer_2_1_">
		<path fill="#3399CC" d="M94.673,86.397c0,6.347-5.146,11.493-11.493,11.493H16.82c-6.347,0-11.493-5.146-11.493-11.493V13.604
			c0-6.348,5.146-11.494,11.493-11.494H83.18c6.348,0,11.493,5.146,11.493,11.494V86.397z"/>
	</g>
</g>
<g id="svg2876" xmlns:sodipodi="http://sodipodi.sourceforge.net/DTD/sodipodi-0.dtd" xmlns:inkscape="http://www.inkscape.org/namespaces/inkscape" xmlns:rdf="http://www.w3.org/1999/02/22-rdf-syntax-ns#" xmlns:dc="http://purl.org/dc/elements/1.1/" xmlns:svg="http://www.w3.org/2000/svg" xmlns:cc="http://creativecommons.org/ns#" sodipodi:docname="slide_rule.svg" inkscape:version="0.48.2 r9819">
	
		<sodipodi:namedview  pagecolor="#ffffff" objecttolerance="10" showgrid="false" inkscape:cy="46.023245" guidetolerance="10" gridtolerance="10" inkscape:zoom="2.6641777" inkscape:cx="61.286872" borderopacity="1" bordercolor="#666666" id="namedview2888" inkscape:pageopacity="0" inkscape:pageshadow="2" inkscape:window-x="-8" inkscape:window-maximized="1" inkscape:current-layer="g3015" inkscape:window-width="1280" inkscape:window-height="738" inkscape:window-y="-8">
		</sodipodi:namedview>
	<defs>
		
		
			<inkscape:perspective  inkscape:vp_y="0 : 1000 : 0" inkscape:vp_z="88.58268 : 44.29134 : 1" sodipodi:type="inkscape:persp3d" inkscape:vp_x="0 : 44.29134 : 1" id="perspective2892" inkscape:persp3d-origin="44.29134 : 29.52756 : 1">
			</inkscape:perspective>
		
			<inkscape:perspective  inkscape:vp_y="0 : 1000 : 0" inkscape:vp_z="90 : 50 : 1" sodipodi:type="inkscape:persp3d" inkscape:vp_x="0 : 50 : 1" id="perspective3682" inkscape:persp3d-origin="45 : 33.333333 : 1">
			</inkscape:perspective>
		
			<inkscape:perspective  inkscape:vp_y="0 : 1000 : 0" inkscape:vp_z="88.58268 : 44.29134 : 1" sodipodi:type="inkscape:persp3d" inkscape:vp_x="0 : 44.29134 : 1" id="perspective3743" inkscape:persp3d-origin="44.29134 : 29.52756 : 1">
			</inkscape:perspective>
		
			<inkscape:perspective  inkscape:vp_y="0 : 1000 : 0" inkscape:vp_z="88.58268 : 44.29134 : 1" sodipodi:type="inkscape:persp3d" inkscape:vp_x="0 : 44.29134 : 1" id="perspective3769" inkscape:persp3d-origin="44.29134 : 29.52756 : 1">
			</inkscape:perspective>
	</defs>
	<g id="g3015" transform="matrix(1.0293389,0,0,1.0293389,-61.574911,3.3832216)">
		<path id="path3174" inkscape:connector-curvature="0" fill="#FFFFFF" d="M143.89,71.078c-1.546,0-3.053-0.359-4.389-0.96
			c-1.365-0.643-2.911-1.012-4.526-1.012c-1.603,0-3.149,0.369-4.514,1.012c-1.353,0.602-2.842,0.96-4.407,0.96
			c-1.546,0-3.058-0.359-4.388-0.96c-1.37-0.643-2.917-1.012-4.532-1.012c-1.598,0-3.144,0.369-4.514,1.012
			c-1.347,0.602-2.843,0.96-4.407,0.96s-3.053-0.359-4.389-0.96c-1.37-0.643-2.917-1.012-4.526-1.012
			c-1.615,0-3.161,0.369-4.525,1.012c-1.336,0.602-2.836,0.96-4.401,0.96c-1.552,0-3.053-0.359-4.395-0.96
			c-1.37-0.643-2.917-1.012-4.526-1.012c-1.603,0-3.15,0.369-4.52,1.012c-1.342,0.602-2.832,0.96-4.395,0.96v-6.596
			c1.563,0,3.053-0.351,4.395-0.961c1.37-0.62,2.916-0.989,4.52-0.989c1.609,0,3.155,0.37,4.526,0.989
			c1.342,0.61,2.842,0.961,4.395,0.961c1.563,0,3.065-0.351,4.401-0.961c1.365-0.62,2.911-0.989,4.525-0.989
			c1.609,0,3.156,0.37,4.526,0.989c1.336,0.61,2.826,0.961,4.389,0.961c1.564,0,3.058-0.351,4.407-0.961
			c1.37-0.62,2.916-0.989,4.514-0.989c1.615,0,3.162,0.37,4.532,0.989c1.33,0.61,2.841,0.961,4.388,0.961
			c1.564,0,3.054-0.351,4.407-0.961c1.365-0.62,2.911-0.989,4.514-0.989c1.616,0,3.161,0.37,4.526,0.989
			c1.336,0.61,2.842,0.961,4.389,0.961V71.078z"/>
		<path id="path3172" inkscape:connector-curvature="0" fill="#FFFFFF" d="M110.398,30.508h5.551V18.475l-2.775,2.67l-2.776-2.67
			V30.508L110.398,30.508z"/>
		<path id="path3170" inkscape:connector-curvature="0" fill="#FFFFFF" d="M93.522,42.654l-2.364,0.994l0.671,1.639
			c-3.165,1.61-5.597,4.134-7.118,7.118l-1.638-0.672l-0.994,2.363l1.638,0.698c-0.459,1.412-0.745,2.878-0.806,4.378
			c0.869,0.092,1.74,0.264,2.579,0.51c0.015-1.335,0.23-2.664,0.618-3.921l9.321,3.867c1.259-0.355,2.556-0.537,3.868-0.537
			c1.288,0,2.574,0.194,3.814,0.537l9.267-3.867c0.402,1.303,0.607,2.637,0.618,3.948c0.838-0.253,1.709-0.438,2.579-0.537
			c-0.057-1.467-0.332-2.924-0.805-4.378l1.638-0.698l-0.968-2.363l-1.638,0.672c-1.609-3.165-4.159-5.598-7.144-7.118l0.698-1.639
			l-2.391-0.994l-0.671,1.638c-3.185-1.035-6.724-1.099-10.1,0L93.522,42.654z M99.296,46.066c1.363,0.006,2.718,0.221,4.002,0.618
			l-4.056,9.778l-4.056-9.778C96.544,46.263,97.933,46.059,99.296,46.066L99.296,46.066z M92.823,47.677l4.029,9.751l-9.751-4.029
			C88.357,51.021,90.31,49.003,92.823,47.677z M105.662,47.677c2.378,1.256,4.422,3.209,5.747,5.722l-9.777,4.029L105.662,47.677z"
			/>
		<path id="path3162" inkscape:connector-curvature="0" fill="#FFFFFF" d="M139.162,59.726l7.731-10.307h-28.701l2.713,6.548
			l-2.116,0.877c0.121,0.789,0.194,1.582,0.217,2.378c1.407,0.188,2.785,0.585,4.086,1.174c0.919,0.421,1.95,0.65,2.961,0.65
			c1.039,0,2.049-0.232,2.988-0.654c1.86-0.845,3.89-1.296,5.932-1.296C136.395,59.095,137.807,59.311,139.162,59.726
			L139.162,59.726z"/>
		<path id="path3160" inkscape:connector-curvature="0" fill="#FFFFFF" d="M80.296,49.419H69.535l7.733,10.309
			c0.724-0.221,1.464-0.387,2.213-0.493c0.024-0.799,0.097-1.597,0.219-2.389l-2.118-0.879L80.296,49.419L80.296,49.419z"/>
		<path id="path3139" inkscape:connector-curvature="0" fill="#FFFFFF" d="M129.702,45.98h-16.341
			c-0.743-0.757-1.546-1.453-2.403-2.083l0.877-2.117l-7.919-3.281v-4.553h25.786V45.98L129.702,45.98z"/>
	</g>
</g>
</svg>
