<?xml version="1.0" encoding="utf-8"?>
<!-- Generator: Adobe Illustrator 16.0.0, SVG Export Plug-In . SVG Version: 6.00 Build 0)  -->
<!DOCTYPE svg PUBLIC "-//W3C//DTD SVG 1.1//EN" "http://www.w3.org/Graphics/SVG/1.1/DTD/svg11.dtd">
<svg version="1.1" id="Layer_1" xmlns="http://www.w3.org/2000/svg" xmlns:xlink="http://www.w3.org/1999/xlink" x="0px" y="0px"
	 width="93.281px" height="100px" viewBox="0 0 93.281 100" enable-background="new 0 0 93.281 100" xml:space="preserve">
<g>
	<g>
		<circle fill="#FDFEFF" cx="23.376" cy="31.21" r="8.241"/>
		<path fill="#FDFEFF" d="M33.472,72.69c0,2.428-1.904,4.396-4.251,4.396H17.532c-2.348,0-4.251-1.968-4.251-4.396V43.847
			c0-2.427,1.903-4.395,4.251-4.395h11.688c2.348,0,4.251,1.968,4.251,4.395V72.69z"/>
	</g>
	<g>
		<circle fill="#FDFEFF" cx="46.556" cy="31.21" r="8.241"/>
		<path fill="#FDFEFF" d="M56.651,72.69c0,2.428-1.902,4.396-4.252,4.396H40.712c-2.349,0-4.251-1.968-4.251-4.396V43.847
			c0-2.427,1.903-4.395,4.251-4.395h11.688c2.35,0,4.252,1.968,4.252,4.395V72.69z"/>
	</g>
	<g>
		<circle fill="#FDFEFF" cx="69.904" cy="30.936" r="8.241"/>
		<path fill="#FDFEFF" d="M80.001,72.416c0,2.427-1.902,4.396-4.251,4.396H64.062c-2.349,0-4.251-1.969-4.251-4.396V43.572
			c0-2.427,1.902-4.396,4.251-4.396H75.75c2.349,0,4.251,1.968,4.251,4.396V72.416z"/>
	</g>
</g>
</svg>
