<?xml version="1.0" encoding="utf-8"?>
<!-- Generator: Adobe Illustrator 16.0.0, SVG Export Plug-In . SVG Version: 6.00 Build 0)  -->
<!DOCTYPE svg PUBLIC "-//W3C//DTD SVG 1.1//EN" "http://www.w3.org/Graphics/SVG/1.1/DTD/svg11.dtd">
<svg version="1.1" id="Layer_1" xmlns="http://www.w3.org/2000/svg" xmlns:xlink="http://www.w3.org/1999/xlink" x="0px" y="0px"
	 width="100px" height="100px" viewBox="0 0 100 100" enable-background="new 0 0 100 100" xml:space="preserve">
<g id="Layer_1_1_">
	<path fill="#F7F8F9" d="M54.908,20.99c3.088,0,5.502-2.416,5.502-5.502c0-3.085-2.414-5.501-5.502-5.501
		c-3.083,0-5.5,2.416-5.5,5.501C49.408,18.574,51.825,20.99,54.908,20.99z"/>
	<path fill="#F7F8F9" d="M30.921,51.32l3.607-0.34l0.078-12.823l6.572-4.16c0,0-1.064,8.428-1.064,12.853
		c0,3.856-0.138,6.98-0.138,6.98l-8.413,33.604l5.942,2.465l9.423-30.727l6.55,8.329l7.463,21.046l6.705-2.681L60.117,63.52
		l-8.264-13.046l2.322-17.099l5.16,10.823l13.281,4.562l1.85-3.358l-12.174-7.102c0,0-2.953-7.846-5.363-12.755
		c-0.822-1.67-4.154-2.216-5.507-2.318c-3.914-0.289-5.937,1.037-9.18,2.743c-3.239,1.702-12.319,8.57-12.319,8.57L30.921,51.32z"/>
</g>
</svg>
