<?xml version="1.0" encoding="utf-8"?>
<!-- Generator: Adobe Illustrator 16.0.0, SVG Export Plug-In . SVG Version: 6.00 Build 0)  -->
<!DOCTYPE svg PUBLIC "-//W3C//DTD SVG 1.1//EN" "http://www.w3.org/Graphics/SVG/1.1/DTD/svg11.dtd">
<svg version="1.1" id="Layer_1" xmlns="http://www.w3.org/2000/svg" xmlns:xlink="http://www.w3.org/1999/xlink" x="0px" y="0px"
	 width="100px" height="100px" viewBox="0 0 100 100" enable-background="new 0 0 100 100" xml:space="preserve">
<g id="Layer_2_1_">
	<path fill="#E0BF33" d="M94.467,86.398c0,6.346-5.146,11.492-11.494,11.492H16.615c-6.348,0-11.493-5.146-11.493-11.492V13.604
		c0-6.348,5.146-11.494,11.493-11.494h66.358c6.35,0,11.494,5.146,11.494,11.494V86.398z"/>
</g>
<g id="Layer_1_2_">
	<path fill="#FDFEFF" d="M73.562,41.802c-1.727,0-3.386,0.29-4.939,0.816c-1.204-2.668-2.61-5.789-4.256-9.452l1.052-2.888
		l3.61-0.067v-3.02H55.437c-1.189,1.626,0.479,1.618,6.5,2.954l-1.051,2.955H34.034c1.809-6.317,0.786-5.857,8.93-5.842v-3.087
		c-11.21,0.109-9.267-1.155-15.269,18.154c-0.918-0.171-1.862-0.266-2.832-0.266c-8.514,0-15.443,6.928-15.443,15.441
		c0,8.516,6.929,15.443,15.443,15.443c8.518,0,15.443-6.928,15.443-15.443c0-6.37-3.881-11.853-9.4-14.209
		c0.335-1.058,0.696-2.186,1.083-3.391C54.579,63.73,46.104,59.864,58.264,60.345c0.055,0,0.108,0,0.17,0
		c1.44,7.039,7.677,12.34,15.13,12.34c8.516,0,15.441-6.924,15.441-15.439C89.005,48.732,82.077,41.802,73.562,41.802z
		 M36.691,57.499c0,6.524-5.306,11.829-11.829,11.829c-6.52,0-11.831-5.302-11.831-11.829c0-6.521,5.308-11.83,11.831-11.83
		c0.588,0,1.167,0.045,1.73,0.129c-3.769,11.884-3.314,10.531-3.337,11.53c-0.019,0.847,0.664,1.517,1.521,1.575
		c1.539-0.157,1.191,0.097,5.035-12.146C33.866,48.636,36.691,52.742,36.691,57.499z M51.939,56.764L33.257,36.403l26.279-0.047
		L51.939,56.764z M58.121,57.191l-2.873-0.008l7.455-19.567l2.892,6.406C61.134,46.721,58.138,51.612,58.121,57.191z M67.097,47.348
		l4.458,9.883l-9.823-0.03C61.749,53.082,63.88,49.453,67.097,47.348z M73.562,69.077c-5.457,0-10.057-3.717-11.418-8.745
		c12.312,0.01,13.41,0.642,13.579-1.494c-0.015-0.623-0.245-1.048-5.604-12.909c1.088-0.332,2.244-0.512,3.444-0.512
		c6.521,0,11.829,5.308,11.829,11.831C85.393,63.769,80.085,69.077,73.562,69.077z"/>
</g>
</svg>
