<?xml version="1.0" encoding="utf-8"?>
<!-- Generator: Adobe Illustrator 16.0.0, SVG Export Plug-In . SVG Version: 6.00 Build 0)  -->
<!DOCTYPE svg PUBLIC "-//W3C//DTD SVG 1.1//EN" "http://www.w3.org/Graphics/SVG/1.1/DTD/svg11.dtd">
<svg version="1.1" id="Layer_1" xmlns="http://www.w3.org/2000/svg" xmlns:xlink="http://www.w3.org/1999/xlink" x="0px" y="0px"
	 width="100px" height="100px" viewBox="0 0 100 100" enable-background="new 0 0 100 100" xml:space="preserve">
<g id="Layer_2">
	<g id="Layer_2_1_">
		<path fill="#7EC356" d="M151.273,46.397c0,3.336-2.703,6.043-6.039,6.043h-34.881c-3.336,0-6.041-2.707-6.041-6.043V8.136
			c0-3.336,2.705-6.042,6.041-6.042h34.879c3.336,0,6.041,2.705,6.041,6.042V46.397L151.273,46.397z"/>
	</g>
</g>
<g id="Layer_2_2_">
	<path fill="#5CBA47" d="M95.467,85.398c0,6.346-5.146,11.492-11.494,11.492H17.615c-6.348,0-11.493-5.146-11.493-11.492V12.604
		c0-6.348,5.146-11.494,11.493-11.494h66.357c6.351,0,11.494,5.146,11.494,11.494V85.398z"/>
</g>
<g id="Layer_1_1_">
	<path fill="#F7F8F9" d="M54.908,20.99c3.088,0,5.502-2.416,5.502-5.502c0-3.085-2.414-5.501-5.502-5.501
		c-3.083,0-5.5,2.416-5.5,5.501C49.408,18.574,51.825,20.99,54.908,20.99z"/>
	<path fill="#F7F8F9" d="M30.921,51.32l3.607-0.339l0.078-12.824l6.572-4.16c0,0-1.064,8.428-1.064,12.853
		c0,3.856-0.138,6.98-0.138,6.98l-8.413,33.603l5.942,2.466l9.423-30.727l6.55,8.329l7.463,21.046l6.706-2.681l-7.53-22.346
		l-8.263-13.047l2.322-17.099l5.16,10.823l13.281,4.562l1.85-3.358l-12.174-7.102c0,0-2.953-7.846-5.364-12.755
		c-0.821-1.67-4.153-2.216-5.506-2.318c-3.914-0.289-5.937,1.037-9.18,2.743c-3.239,1.702-12.319,8.57-12.319,8.57L30.921,51.32z"/>
</g>
</svg>
