<?xml version="1.0" encoding="utf-8"?>
<!-- Generator: Adobe Illustrator 16.0.0, SVG Export Plug-In . SVG Version: 6.00 Build 0)  -->
<!DOCTYPE svg PUBLIC "-//W3C//DTD SVG 1.1//EN" "http://www.w3.org/Graphics/SVG/1.1/DTD/svg11.dtd">
<svg version="1.1" xmlns="http://www.w3.org/2000/svg" xmlns:xlink="http://www.w3.org/1999/xlink" x="0px" y="0px" width="100px"
	 height="100px" viewBox="0 0 100 100" enable-background="new 0 0 100 100" xml:space="preserve">
<g id="Layer_2">
	<path fill="#E84D38" d="M95.346,86.288c0,6.347-5.146,11.493-11.493,11.493H17.494C11.146,97.781,6,92.635,6,86.288V13.494
		C6,7.146,11.146,2,17.494,2h66.359C90.2,2,95.346,7.146,95.346,13.494V86.288z"/>
</g>
<g id="Layer_1">
	<g>
		<path fill="#FCFAFA" d="M70.809,60.28H32.284c1.265,2.657,9.406,4.707,19.262,4.707C61.4,64.987,69.545,62.938,70.809,60.28
			L70.809,60.28z M19.81,52.653c-0.121,2.399,2.713,4.938,6.329,5.665c3.615,0.727,6.643-0.629,6.763-3.029
			c0.121-2.404-2.713-4.94-6.328-5.668C22.958,48.894,19.93,50.251,19.81,52.653L19.81,52.653z M51.545,18.67
			c-8.158,0.052-17.669,0.347-25.477,2.224c-0.692,0.132-0.774,0.861-0.774,0.861L24.626,39.51
			c-0.058,3.079,3.46,4.479,26.917,4.553c23.461-0.074,26.977-1.474,26.922-4.553l-0.67-17.755c0,0-0.08-0.729-0.775-0.861
			C69.211,19.017,59.703,18.722,51.545,18.67L51.545,18.67z M83.279,52.653c-0.121-2.403-3.148-3.76-6.764-3.032
			s-6.449,3.264-6.328,5.668c0.121,2.401,3.148,3.756,6.764,3.029S83.398,55.053,83.279,52.653L83.279,52.653z M51.674,77.882
			l-2.145-0.001c-7.968-0.03-15.783-0.185-22.285-0.662v3.628c0,1.988-1.612,3.601-3.601,3.601h-2.96
			c-1.989,0-3.601-1.608-3.601-3.601v-7.576c-0.078-0.674-0.16-1.448-0.239-2.314c-0.612-3.174-0.965-6.926-0.965-10.947
			c0-5.099,0.569-9.766,1.512-13.373c0.187-0.821,0.413-1.554,0.67-2.208c0.078-0.224,0.16-0.442,0.242-0.655l3.583-24.513
			c0,0,0.144-1.021,1.058-1.249c8.221-2.237,28.043-2.46,28.73-2.458c0.686-0.001,20.508,0.221,28.729,2.458
			c0.912,0.228,1.059,1.249,1.059,1.249l3.58,24.513c0.082,0.212,0.166,0.431,0.242,0.655c0.258,0.654,0.484,1.387,0.672,2.208
			c0.941,3.606,1.512,8.274,1.512,13.373c0,4.021-0.354,7.771-0.965,10.947c-0.08,0.868-0.16,1.641-0.238,2.314v7.576
			c0,1.988-1.611,3.601-3.6,3.601h-2.961c-1.988,0-3.602-1.608-3.602-3.601V77.22c-6.502,0.477-14.316,0.631-22.285,0.661
			L51.674,77.882L51.674,77.882z"/>
	</g>
</g>
</svg>
