<?xml version="1.0" encoding="utf-8"?>
<!-- Generator: Adobe Illustrator 16.0.0, SVG Export Plug-In . SVG Version: 6.00 Build 0)  -->
<!DOCTYPE svg PUBLIC "-//W3C//DTD SVG 1.1//EN" "http://www.w3.org/Graphics/SVG/1.1/DTD/svg11.dtd">
<svg version="1.1" xmlns="http://www.w3.org/2000/svg" xmlns:xlink="http://www.w3.org/1999/xlink" x="0px" y="0px"
	 width="93.281px" height="100px" viewBox="0 0 93.281 100" enable-background="new 0 0 93.281 100" xml:space="preserve">
<g id="Layer_2">
	<path fill="#3399CC" d="M91.345,86.288c0,6.347-5.146,11.493-11.493,11.493H13.493C7.146,97.781,2,92.635,2,86.288V13.494
		C2,7.146,7.146,2,13.493,2h66.359C86.2,2,91.345,7.146,91.345,13.494V86.288z"/>
</g>
<g id="Layer_1">
	<path fill="#FCFCFC" d="M83.477,87.77c-1.594,0-3.151-0.375-4.521-1c-1.411-0.67-3.004-1.056-4.665-1.056
		c-1.646,0-3.239,0.386-4.647,1.056c-1.389,0.626-2.929,1-4.539,1s-3.145-0.375-4.518-1c-1.406-0.67-3-1.056-4.668-1.056
		c-1.645,0-3.237,0.386-4.66,1.056c-1.377,0.626-2.908,1-4.517,1c-1.611,0-3.15-0.375-4.526-1c-1.417-0.67-3.003-1.056-4.666-1.056
		c-1.657,0-3.237,0.386-4.654,1.056c-1.382,0.626-2.921,1-4.53,1c-1.61,0-3.144-0.375-4.526-1c-1.411-0.67-3.003-1.056-4.654-1.056
		c-1.668,0-3.249,0.386-4.66,1.056c-1.381,0.626-2.915,1-4.525,1v-6.865c1.61,0,3.145-0.365,4.526-0.993
		c1.411-0.65,2.992-1.036,4.66-1.036c1.651,0,3.243,0.386,4.654,1.036c1.382,0.628,2.916,0.993,4.526,0.993
		c1.608,0,3.149-0.365,4.531-0.993c1.417-0.65,2.998-1.036,4.654-1.036c1.663,0,3.249,0.386,4.667,1.036
		c1.375,0.628,2.915,0.993,4.526,0.993c1.608,0,3.142-0.365,4.519-0.993c1.422-0.65,3.015-1.036,4.659-1.036
		c1.668,0,3.262,0.386,4.668,1.036c1.373,0.628,2.907,0.993,4.517,0.993c1.611,0,3.15-0.365,4.539-0.993
		c1.408-0.65,3.002-1.036,4.647-1.036c1.661,0,3.254,0.386,4.665,1.036c1.369,0.628,2.927,0.993,4.521,0.993V87.77z"/>
	<path fill="#FCFCFC" d="M17.887,48.084c2.458,0,4.455-2.018,4.455-4.498c0-2.482-1.997-4.495-4.455-4.495
		c-2.453,0-4.449,2.012-4.449,4.495C13.438,46.066,15.434,48.084,17.887,48.084z"/>
	<path fill="#FCFCFC" d="M37.451,68.477H24.719c-1.874,0-3.506-1.126-4.238-2.752l-4.708-10.86
		c-0.094-0.366-0.141-0.738-0.141-1.122c0-2.612,2.09-4.717,4.661-4.717l10.343-0.017l7.097-3.256
		c0.111-0.077,0.404-0.147,0.714-0.147c1.217,0,2.213,1.018,2.213,2.237c0,0.757-0.38,1.443-0.948,1.846l-7.723,3.516
		c-0.509,0.409-1.481,0.462-1.481,0.462H25.86l3.899,8.746h8.604l0,0c0.85,0,1.448,0.297,1.968,0.763l8.437,8.099l0,0
		c1.17,1.111,1.247,2.977,0.15,4.179c-1.117,1.182-2.966,1.26-4.138,0.153l0,0L37.451,68.477z"/>
	<path fill="#FCFCFC" d="M77.124,53.775c0.163,0.279,0.567,0.393,0.936,0.393c0.716,0,1.3-0.592,1.3-1.334
		c0-0.354-0.172-0.668-0.334-0.963c-7.955-15.351-29.434-10.784-32.068-9.783c-0.439,0.166-0.697,0.668-0.697,1.166
		c0,0.721,0.586,1.315,1.301,1.315c0.221,0,0.326-0.02,0.515-0.081C69.149,39.704,76.012,51.835,77.124,53.775z M80.782,55.16
		L53.836,72.346L29.308,9C51.26,11.941,79.173,29.182,80.782,55.16z"/>
</g>
</svg>
