<?xml version="1.0" encoding="utf-8"?>
<!-- Generator: Adobe Illustrator 16.0.0, SVG Export Plug-In . SVG Version: 6.00 Build 0)  -->
<!DOCTYPE svg PUBLIC "-//W3C//DTD SVG 1.1//EN" "http://www.w3.org/Graphics/SVG/1.1/DTD/svg11.dtd">
<svg version="1.1" xmlns="http://www.w3.org/2000/svg" xmlns:xlink="http://www.w3.org/1999/xlink" x="0px" y="0px" width="100px"
	 height="100px" viewBox="0 0 100 100" enable-background="new 0 0 100 100" xml:space="preserve">
<g id="Layer_2">
	<path fill="#3399CC" d="M95.346,86.288c0,6.347-5.146,11.493-11.493,11.493H17.494C11.146,97.781,6,92.635,6,86.288V13.494
		C6,7.146,11.146,2,17.494,2h66.359C90.2,2,95.346,7.146,95.346,13.494V86.288z"/>
</g>
<g id="svg6584" xmlns:rdf="http://www.w3.org/1999/02/22-rdf-syntax-ns#" xmlns:dc="http://purl.org/dc/elements/1.1/" xmlns:svg="http://www.w3.org/2000/svg" xmlns:cc="http://creativecommons.org/ns#">
	<g id="layer1" transform="translate(0,-952.362)">
		<path id="path8421-9-1-0" fill="#FCFCFC" d="M60.938,975.28c-0.659,0-1.808,0.387-2.344,0.651l-16.667,8.073
			c-2.219,1.05-3.026,4.279-1.562,6.25l5.078,6.901l-18.62,14.453l8.594,2.734l11.198-3.646c0.399-0.133,0.862-0.258,1.302-0.258
			c0.44,0,0.863,0.116,1.302,0.258l11.197,3.646l5.859-1.953L50.26,989.212l12.63-6.38c2.508-1.254,2.344-3.405,2.084-4.688
			C64.728,976.928,63.229,975.28,60.938,975.28z M68.75,987.78c-4.603,0-8.334,3.73-8.334,8.333s3.731,8.333,8.334,8.333
			s8.334-3.73,8.334-8.333S73.353,987.78,68.75,987.78z M22.917,1016.946c-0.443,0-1.009,0.143-1.302,0.259l-7.031,2.344v8.594
			l8.333-2.864l11.198,3.906c0.456,0.149,0.863,0.258,1.302,0.258c0.439,0,0.919-0.137,1.302-0.258l11.198-3.906l11.199,3.906
			c0.43,0.141,0.863,0.258,1.301,0.258c0.439,0,0.894-0.129,1.303-0.258l11.197-3.906l12.5,4.166v-8.594l-11.197-3.646
			c-0.414-0.138-0.862-0.259-1.303-0.259c-0.439,0-0.877,0.121-1.301,0.259l-11.199,3.646l-11.197-3.646
			c-0.439-0.146-0.862-0.259-1.302-0.259c-0.439,0-0.903,0.134-1.302,0.259l-11.198,3.646l-11.198-3.646
			C23.681,1017.001,23.36,1016.946,22.917,1016.946L22.917,1016.946z"/>
	</g>
</g>
</svg>
